# xmcd CD database file
#
# Track frame offsets:
#	150
#	19051
#	36698
#	59256
#	71381
#	90801
#	96996
#	117806
#	132696
#	146433
#	166346
#	177581
#	188968
#	198171
#	215608
#	225543
#	240536
#	258021
#	276998
#	285598
#	301838
#	314076
#
# Disc length: 4310 seconds
#
# Revision: 0
# Processed by: cddbd v1.5.2PL0 Copyright (c) Steve Scherf et al.
# Submitted via: CDex 1.70beta2
#
DISCID=4210d416
DTITLE=David McCullough - 1776 - Unabridged - Disc 9
DYEAR=2005
DGENRE=Blues
TTITLE0=1776 - Disc 9 - Track 1
TTITLE1=1776 - Disc 9 - Track 2
TTITLE2=1776 - Disc 9 - Track 3
TTITLE3=1776 - Disc 9 - Track 4
TTITLE4=1776 - Disc 9 - Track 5
TTITLE5=1776 - Disc 9 - Track 6
TTITLE6=1776 - Disc 9 - Track 7
TTITLE7=1776 - Disc 9 - Track 8
TTITLE8=1776 - Disc 9 - Track 9
TTITLE9=1776 - Disc 9- Track 10
TTITLE10=1776 - Disc 9 - Track 11
TTITLE11=1776 - Disc 9 - Track 12
TTITLE12=1776 - Disc 9 - Track 13
TTITLE13=1776 - Disc 9 - Track 14
TTITLE14=1776 - Disc 9 - Track 15
TTITLE15=1776 - Disc 9 - Track 16
TTITLE16=1776 - Disc 9 - Track 17
TTITLE17=1776 - Disc 9 - Track 18
TTITLE18=1776 - Disc 9 - Track 19
TTITLE19=1776 - Disc 9 - Track 20
TTITLE20=1776 - Disc 9 - Track 21
TTITLE21=1776 - Disc 9 - Track 22
EXTD=YEAR: 2005
EXTT0=
EXTT1=
EXTT2=
EXTT3=
EXTT4=
EXTT5=
EXTT6=
EXTT7=
EXTT8=
EXTT9=
EXTT10=
EXTT11=
EXTT12=
EXTT13=
EXTT14=
EXTT15=
EXTT16=
EXTT17=
EXTT18=
EXTT19=
EXTT20=
EXTT21=
PLAYORDER=
